<svg xmlns="http://www.w3.org/2000/svg" width="131" height="131" viewBox="0 0 131 131">
  <g fill="none" fill-rule="evenodd">
    <rect width="131" height="131" fill="#CC1000" rx="25"/>
    <g fill="#FFF">
      <path d="M38.636 84.755c0-1.284-1.04-2.323-2.323-2.323H20.186c-1.284 0-2.324 1.04-2.324 2.323 0 1.282 1.04 2.323 2.324 2.323h16.127c1.282 0 2.323-1.04 2.323-2.323zm-24.082-8.95H30.68c1.283 0 2.323-1.04 2.323-2.324 0-1.28-1.04-2.32-2.324-2.32H14.55c-1.284 0-2.325 1.04-2.325 2.33s1.04 2.33 2.324 2.33zm24.082-13.597c-.005-1.28-1.045-2.315-2.323-2.315H20.186c-1.284 0-2.324 1.04-2.324 2.323 0 1.284 1.04 2.324 2.324 2.324h16.136c1.283 0 2.323-1.04 2.323-2.324l-.01-.008zm61.217-13.17l-2.584 2.61c12.41 16.55 9.07 40.034-7.48 52.453-5.79 4.35-12.71 6.92-19.93 7.42-.86.06-1.71.09-2.55.09-10.61.03-20.73-4.47-27.82-12.35-.84-.97-.73-2.44.24-3.28.94-.81 2.35-.73 3.2.17 12.15 13.45 32.91 14.5 46.37 2.35 13.14-11.87 14.5-32.02 3.07-45.54-.79-.92-.73-2.29.13-3.15l4.05-4.05c.61-.67.552-1.71-.12-2.32-.63-.563-1.58-.563-2.21 0l-4.21 4.21c-.82.82-2.113.91-3.04.218-4.66-3.5-10.174-5.686-15.97-6.34-1.174-.13-2.066-1.12-2.07-2.305v-7.49c-.02-1.29 1.004-2.34 2.287-2.37h2.17c.905 0 1.64-.735 1.64-1.644 0-.905-.736-1.64-1.643-1.64H61.21c-.906 0-1.643.733-1.643 1.642 0 .91.734 1.64 1.642 1.64h2.13c1.28 0 2.32 1.04 2.32 2.325v7.53c0 1.18-.89 2.17-2.07 2.3-7.51.86-14.5 4.286-19.78 9.696-.9.914-2.38.93-3.3.03-.92-.9-.94-2.38-.04-3.296 5.53-5.657 12.72-9.42 20.52-10.754V34c-3.46-.313-6.01-3.375-5.698-6.835.28-3.096 2.784-5.523 5.89-5.71h12.2c3.466.21 6.11 3.19 5.903 6.658-.186 3.106-2.61 5.61-5.71 5.89v3.153c5.195.88 10.146 2.845 14.53 5.77l2.79-2.79c2.45-2.46 6.44-2.46 8.9-.002s2.46 6.44 0 8.9l.03.02z"/>
      <path d="M65.436 87.78h-13.22c-1.136 0-2.105-.234-2.907-.698-.81-.465-1.2-1.24-1.2-2.326 0-.904.32-1.783.96-2.636.23-.283.62-.723 1.16-1.317l4.14-4.614c1.18-1.19 2.13-2.27 2.83-3.24.69-.97 1.21-1.7 1.55-2.19.33-.49.59-.92.77-1.28.44-.88.66-1.63.66-2.25 0-.62-.24-1.23-.72-1.84-.48-.61-1.35-.91-2.6-.91-1.256 0-2.12.36-2.6 1.08-.478.72-.717 1.74-.717 3.06h-5.07c0-1.32.104-2.45.31-3.39.207-.95.61-1.84 1.203-2.7 1.162-1.73 3.565-2.6 7.21-2.6 2.712 0 4.805.55 6.28 1.66 1.47 1.11 2.21 2.7 2.21 4.77 0 1.26-.294 2.57-.875 3.93-.58 1.36-1.196 2.45-1.84 3.27-.65.826-1.41 1.743-2.29 2.75-.88 1.01-1.396 1.616-1.55 1.823l-4.38 5.08h10.66v4.534zm23.567-5.93h-3.1v5.93h-4.807v-5.93h-8.024c-1.32 0-2.307-.278-2.967-.835-.657-.555-.987-1.323-.987-2.305 0-.518.218-1.435.658-2.753.44-1.317 1.667-4.702 3.684-10.155h5.386l-4.224 11.28h6.474v-16.9h4.807v16.9h3.1v4.767z"/>
    </g>
  </g>
</svg>