<svg width="215" height="68" viewBox="0 0 215 68" xmlns="http://www.w3.org/2000/svg"><g fill="none" fill-rule="evenodd"><path d="M19 0h30c10.493 0 19 8.507 19 19v30c0 10.493-8.507 19-19 19H19C8.507 68 0 59.493 0 49V19C0 8.507 8.507 0 19 0z" fill="#CC1000"></path><g fill="#FFF"><path d="M19.885 44.263c0-.67-.543-1.212-1.211-1.212h-8.407a1.211 1.211 0 1 0 0 2.424h8.407c.668 0 1.21-.542 1.21-1.212zM7.33 39.593h8.406a1.212 1.212 0 0 0 0-2.424H7.331a1.212 1.212 0 0 0 0 2.425zM19.885 32.5a1.212 1.212 0 0 0-1.211-1.208h-8.407a1.212 1.212 0 0 0 0 2.425h8.411c.67 0 1.211-.543 1.211-1.213l-.004-.004zm31.91-6.872l-1.346 1.363c6.474 8.634 4.728 20.886-3.9 27.366a19.52 19.52 0 0 1-10.384 3.867c-.445.029-.888.043-1.327.043a19.446 19.446 0 0 1-14.502-6.444 1.213 1.213 0 0 1 .127-1.71 1.21 1.21 0 0 1 1.67.086c6.336 7.019 17.158 7.569 24.17 1.228 6.85-6.192 7.559-16.706 1.602-23.762a1.212 1.212 0 0 1 .068-1.644l2.112-2.114a.859.859 0 0 0-1.211-1.212l-2.195 2.196a1.21 1.21 0 0 1-1.584.112 17.055 17.055 0 0 0-8.324-3.307 1.212 1.212 0 0 1-1.08-1.203v-3.908a1.212 1.212 0 0 1 1.191-1.232H38.012a.858.858 0 0 0 0-1.717h-6.358a.858.858 0 0 0 0 1.717h1.11c.669 0 1.21.543 1.21 1.213v3.927a1.212 1.212 0 0 1-1.075 1.203 17.127 17.127 0 0 0-10.31 5.057 1.214 1.214 0 1 1-1.734-1.702 19.574 19.574 0 0 1 10.697-5.61v-1.663a3.282 3.282 0 0 1 .102-6.546h6.357a3.282 3.282 0 0 1 .102 6.546v1.644a19.481 19.481 0 0 1 7.573 3.01l1.453-1.454a3.279 3.279 0 0 1 4.64-.002 3.285 3.285 0 0 1 .002 4.643l.015.01z"></path><path d="M33.855 45.841h-6.89c-.594 0-1.099-.121-1.517-.363-.417-.243-.625-.648-.625-1.214 0-.472.168-.93.505-1.375.12-.148.323-.378.606-.688l2.162-2.406c.619-.62 1.111-1.183 1.475-1.689.363-.505.633-.886.808-1.143a5.79 5.79 0 0 0 .404-.667c.229-.458.344-.85.344-1.173 0-.323-.125-.643-.374-.96-.25-.317-.7-.475-1.353-.475-.654 0-1.106.189-1.355.566-.249.377-.374.91-.374 1.597h-2.647c0-.687.054-1.277.162-1.77a3.91 3.91 0 0 1 .626-1.405c.607-.902 1.86-1.355 3.759-1.355 1.414 0 2.505.29 3.273.87.768.58 1.152 1.41 1.152 2.488 0 .66-.152 1.345-.455 2.052-.303.708-.623 1.277-.96 1.71-.337.43-.734.909-1.191 1.435-.458.526-.728.842-.809.95l-2.283 2.65h5.557v2.365zM46.14 42.747h-1.616v3.095h-2.506v-3.095h-4.183c-.687 0-1.202-.144-1.546-.435-.343-.29-.515-.69-.515-1.202 0-.27.114-.75.343-1.437.23-.687.87-2.453 1.92-5.298h2.808l-2.202 5.885h3.375v-8.817h2.506v8.817h1.616v2.487z"></path></g><g fill="#CC1000"><path d="M88.128 42.908h-7.717c-.663 0-1.23-.136-1.697-.407-.468-.27-.701-.721-.701-1.354 0-.526.187-1.038.565-1.534.136-.166.362-.422.68-.77l2.42-2.685c.695-.692 1.244-1.32 1.652-1.885.407-.564.71-.989.906-1.275.195-.286.347-.534.452-.745.256-.512.385-.949.385-1.31 0-.36-.14-.718-.419-1.072-.279-.353-.784-.53-1.516-.53s-1.237.211-1.516.632c-.28.421-.419 1.016-.419 1.783h-2.965c0-.767.06-1.425.182-1.975.12-.55.353-1.072.701-1.568.679-1.01 2.082-1.513 4.21-1.513 1.583 0 2.806.323 3.666.97.86.648 1.29 1.572 1.29 2.776 0 .739-.17 1.502-.51 2.292-.339.79-.698 1.427-1.075 1.907a38.956 38.956 0 0 1-1.335 1.603 30.15 30.15 0 0 0-.904 1.061l-2.558 2.958h6.223v2.641zM101.886 39.454h-1.81v3.454H97.27v-3.454h-4.685c-.77 0-1.347-.161-1.732-.485-.383-.324-.577-.77-.577-1.343 0-.301.129-.836.385-1.604.257-.766.973-2.738 2.15-5.913h3.146l-2.467 6.568h3.78v-9.842h2.805v9.842h1.81v2.777zM120.782 38.167c0 1.521-.558 2.714-1.675 3.578-1.116.866-2.542 1.299-4.278 1.299-1.372 0-2.7-.376-3.982-1.13-.634-.39-1.153-.944-1.56-1.658-.408-.716-.612-1.532-.612-2.45l2.852-.136c0 .813.347 1.446 1.04 1.898a4.145 4.145 0 0 0 2.309.676c1.885 0 2.827-.662 2.827-1.986 0-1.084-.64-1.723-1.922-1.92l-2.626-.27c-1.312-.195-2.353-.662-3.122-1.4-.77-.737-1.154-1.798-1.154-3.182 0-1.386.55-2.53 1.651-3.431 1.1-.903 2.493-1.355 4.176-1.355 1.681 0 3.035.424 4.061 1.274 1.026.852 1.54 1.947 1.54 3.285l-2.807.137c-.257-1.31-1.14-1.964-2.647-1.964-.921 0-1.64.195-2.16.586-.522.391-.782.855-.782 1.387 0 .535.189.957.566 1.266.377.308.845.5 1.403.575l2.58.272c2.881.39 4.322 1.94 4.322 4.65M130.602 37.49l-1.901-6.365-1.99 6.365h3.89zm4.91 5.418h-3.28l-.906-2.777h-5.409l-.882 2.777h-3.28l5.159-14.718c.226-.512.478-.866.758-1.061.279-.196.622-.294 1.029-.294.407 0 .735.09.985.27.248.182.472.542.667 1.085l5.16 14.718zM145.04 37.49l-1.901-6.365-1.99 6.365h3.89zm4.91 5.418h-3.28l-.906-2.777h-5.409l-.882 2.777h-3.28l5.159-14.718c.226-.512.477-.866.758-1.061.279-.196.622-.294 1.029-.294.407 0 .735.09.985.27.248.182.471.542.667 1.085l5.16 14.718zM162.645 29.634h-4.322v13.274h-3.146V29.634h-4.3v-2.8h11.768zM175.567 29.634h-4.322v13.274h-3.147V29.634h-4.3v-2.8h11.769zM188.623 42.908h-5.703c-1.81 0-3.081-.311-3.813-.937-.731-.625-1.097-1.727-1.097-3.307v-11.83h10.613v2.8h-7.467v3.77h5.227l-.226 2.8h-5.001v2.234c0 .632.143 1.069.43 1.309.286.241.806.362 1.561.362h5.476v2.8zM196.951 42.908h3.146V26.834h-3.146zM214.715 38.167c0 1.521-.558 2.714-1.675 3.578-1.116.866-2.542 1.299-4.277 1.299-1.373 0-2.7-.376-3.982-1.13-.634-.39-1.154-.944-1.561-1.658-.408-.716-.612-1.532-.612-2.45l2.852-.136c0 .813.347 1.446 1.04 1.898a4.145 4.145 0 0 0 2.309.676c1.885 0 2.828-.662 2.828-1.986 0-1.084-.641-1.723-1.923-1.92l-2.625-.27c-1.313-.195-2.354-.662-3.123-1.4-.77-.737-1.154-1.798-1.154-3.182 0-1.386.55-2.53 1.651-3.431 1.101-.903 2.493-1.355 4.176-1.355 1.682 0 3.035.424 4.061 1.274 1.026.852 1.54 1.947 1.54 3.285l-2.807.137c-.256-1.31-1.139-1.964-2.647-1.964-.92 0-1.64.195-2.16.586-.522.391-.782.855-.782 1.387 0 .535.189.957.566 1.266.377.308.845.5 1.403.575l2.58.272c2.881.39 4.322 1.94 4.322 4.65M200.043 20.907c.234.233.35.727.35 1.479 0 .753-.116 1.249-.35 1.49-.233.24-.728.361-1.483.361-.754 0-1.251-.12-1.493-.36-.24-.242-.362-.738-.362-1.491 0-.752.121-1.246.362-1.479.242-.233.74-.35 1.493-.35.755 0 1.25.117 1.483.35M210.527 45.584c.234.234.351.727.351 1.479 0 .753-.117 1.25-.35 1.49-.234.24-.728.361-1.483.361-.754 0-1.251-.12-1.493-.36-.241-.242-.363-.738-.363-1.491 0-.752.122-1.245.363-1.479.242-.233.739-.349 1.493-.349.755 0 1.25.116 1.482.35"></path></g></g></svg>